PathFileType	4	(X/Y/Z)	./resultDataOpenSim/trcMotMarkerGrf/sub06/qtm-03-03.trc
DataRate	CameraRate	NumFrames	NumMarkers	Units	OrigDataRate	OrigDataStartFrame	OrigNumFrames
250.000000	250.000000	13	24	m	250.000000	310	495
Frame#	Time	L.Toe.Tip			R.Toe.Tip			L.Ankle.Lat			R.Ankle.Lat			L.Ankle.Med			R.Ankle.Med			L.Heel			R.Heel			L.Knee.Lat			R.Knee.Lat			L.Knee.Med			R.Knee.Med			L.Thigh.Upper			R.Thigh.Upper			L.ASIS			R.ASIS			V.Sacral			L.Acromium			R.Acromium			C7			L.Elbow			R.Elbow			L.Wrist.Lat			R.Wrist.Lat
		X1	Y1	Z1	X2	Y2	Z2	X3	Y3	Z3	X4	Y4	Z4	X5	Y5	Z5	X6	Y6	Z6	X7	Y7	Z7	X8	Y8	Z8	X9	Y9	Z9	X10	Y10	Z10	X11	Y11	Z11	X12	Y12	Z12	X13	Y13	Z13	X14	Y14	Z14	X15	Y15	Z15	X16	Y16	Z16	X17	Y17	Z17	X18	Y18	Z18	X19	Y19	Z19	X20	Y20	Z20	X21	Y21	Z21	X22	Y22	Z22	X23	Y23	Z23	X24	Y24	Z24

310	1.236	0.30488035	0.089023085	-0.038593251	0.89264	0.035995472	0.14121102	0.31896821	0.21780772	-0.071260088	0.75516364	0.059214613	0.16069576	0.33939619	0.22312142	0.010701351	0.77819059	0.082046326	0.074959411	0.27720607	0.27857398	-0.0222854	0.70268902	0.03813661	0.098447509	0.66315312	0.3672321	-0.10352861	0.82296407	0.43997118	0.19959858	0.6674232	0.35309885	0.017372108	0.79306809	0.42930733	0.077237555	0.62733607	0.7577392	-0.085993091	0.66389472	0.79053923	0.25941789	0.71062597	0.80667698	-0.054475819	0.75181685	0.83224221	0.18561151	0.54630366	0.90041433	0.092237273	0.68692774	1.310542	-0.098121437	0.69523177	1.2786404	0.26378708	0.61445572	1.3384685	0.086578781	0.66675995	0.98589311	-0.16656092	0.59521883	0.9791092	0.32332843	0.8612602	0.83355209	-0.13834157	0.71248242	0.77904741	0.40140558
311	1.24	0.31894127	0.091885991	-0.039062598	0.89251684	0.036024354	0.14136061	0.3320534	0.2208001	-0.071601354	0.7549947	0.059232272	0.16082687	0.35243014	0.22616309	0.010301298	0.77810278	0.08220399	0.075151488	0.28970606	0.28139921	-0.022814649	0.70258695	0.038217582	0.098526512	0.67590085	0.36991933	-0.10372848	0.82490046	0.44016462	0.20040382	0.68006573	0.3555431	0.017265501	0.79488943	0.42991164	0.077581346	0.63380281	0.76021424	-0.085782571	0.6679074	0.79217019	0.26019712	0.71654753	0.80893666	-0.05415361	0.75718566	0.83393629	0.18673501	0.55197167	0.90253267	0.092428743	0.69207724	1.3128939	-0.098021834	0.7009638	1.2810593	0.26385494	0.62027142	1.3404487	0.086598513	0.67073936	0.98854358	-0.16611709	0.60325166	0.98051503	0.32429223	0.8633452	0.83380789	-0.13949722	0.72523447	0.78227862	0.40035804
312	1.244	0.33318561	0.094512074	-0.039581537	0.89240722	0.036052139	0.1414996	0.34521231	0.22360593	-0.071971703	0.75483531	0.059260037	0.16095518	0.36563273	0.22896304	0.0098477018	0.77801149	0.082370259	0.075343309	0.30225335	0.28396449	-0.023403561	0.70248958	0.038298122	0.098635389	0.68861888	0.37272511	-0.10388248	0.82691055	0.44047002	0.20120449	0.69267171	0.35810499	0.017217695	0.79645822	0.43051132	0.077962911	0.64041462	0.76271164	-0.085783937	0.67179597	0.79377022	0.26082733	0.72257866	0.81122856	-0.053889046	0.76256293	0.83568224	0.18786462	0.55766109	0.90463516	0.092511936	0.69725513	1.3152526	-0.097895536	0.70670679	1.2835113	0.26392293	0.62616989	1.342333	0.086517855	0.67466078	0.99123206	-0.16570862	0.6114914	0.98187202	0.3249863	0.86536778	0.83413349	-0.140663	0.7379412	0.78567975	0.39924248
313	1.248	0.34760061	0.09690392	-0.040164244	0.89230857	0.036078224	0.1416229	0.35846115	0.22622982	-0.072409609	0.75469713	0.059281301	0.16107527	0.37901718	0.2315012	0.0093484489	0.77792311	0.082541614	0.075527268	0.31484779	0.28620126	-0.023887428	0.70240286	0.038374917	0.098756316	0.70131301	0.3756427	-0.1040047	0.82877909	0.44080951	0.20191146	0.70526056	0.36078303	0.017225062	0.79784318	0.43108665	0.078327953	0.64706958	0.76521067	-0.085882543	0.67568686	0.79536466	0.26135236	0.7289102	0.81359019	-0.053539548	0.76791146	0.83747772	0.18896193	0.56336245	0.90671508	0.092525826	0.70246138	1.3176092	-0.097745853	0.71246275	1.2859905	0.26398977	0.63203983	1.3442191	0.086445466	0.6785185	0.99395107	-0.16535911	0.61984904	0.98324249	0.32554733	0.86732915	0.83451895	-0.14183823	0.75058481	0.78924029	0.39806221
314	1.252	0.36218082	0.099068186	-0.040817766	0.89221603	0.036104102	0.14172356	0.37179288	0.22866104	-0.072919832	0.75456527	0.059296984	0.16119267	0.39246109	0.23379243	0.0088778388	0.77784247	0.08271352	0.075691108	0.32747283	0.2880962	-0.024215531	0.7023224	0.038451407	0.098879547	0.7139639	0.37866239	-0.10408031	0.83035183	0.44111586	0.20246075	0.71780317	0.36357412	0.017301862	0.79917824	0.4316129	0.078597729	0.6536569	0.76769394	-0.085907981	0.67992824	0.79691023	0.2617266	0.73553635	0.81602018	-0.053006783	0.77324383	0.83932667	0.19002046	0.56911556	0.90875739	0.092504824	0.70769637	1.3199547	-0.097577299	0.71822822	1.2884889	0.26405229	0.63778922	1.3461968	0.086474818	0.68231613	0.99669674	-0.16506644	0.62821834	0.98466632	0.32607145	0.86923075	0.83495726	-0.14302378	0.76314975	0.79294984	0.39681818
315	1.256	0.37692416	0.10101173	-0.041538565	0.89212567	0.036130923	0.14179813	0.38516684	0.23085591	-0.073443439	0.75440928	0.059323845	0.16132129	0.40578446	0.23587078	0.00851619	0.77777164	0.082880763	0.075825514	0.34010754	0.28967154	-0.024433287	0.70223798	0.038533049	0.099007959	0.72652793	0.38177729	-0.10407708	0.83159493	0.4413621	0.20283566	0.73028329	0.36647664	0.017460731	0.80048042	0.43207803	0.078760339	0.66014382	0.7701535	-0.085757187	0.68496535	0.79832708	0.26184976	0.74222105	0.81848229	-0.052328213	0.77858906	0.84122856	0.19104358	0.57498218	0.91075048	0.092499194	0.71296954	1.3222821	-0.097396766	0.72400182	1.2909979	0.26410812	0.64342212	1.3482658	0.086606286	0.68605966	0.9994622	-0.16482393	0.6364735	0.9861493	0.32656991	0.87107479	0.83544347	-0.14422263	0.77562865	0.79679867	0.39551182
316	1.26	0.39183393	0.10274167	-0.042314886	0.89203571	0.036158089	0.14184861	0.3985518	0.23275325	-0.073912114	0.7542266	0.059372766	0.16146179	0.41896317	0.23774109	0.0082554087	0.77770432	0.08303812	0.075932815	0.3527411	0.29094819	-0.024590043	0.70213964	0.038621947	0.099153237	0.73898316	0.38499073	-0.10399852	0.83255209	0.44154998	0.20305064	0.74270699	0.36949115	0.01770042	0.80166693	0.43247911	0.078851508	0.66660579	0.77259365	-0.085449975	0.69106248	0.79956701	0.26166339	0.74874198	0.82094243	-0.051614358	0.78395504	0.84317175	0.19201984	0.58099415	0.91270298	0.092609622	0.71829873	1.3245871	-0.097219759	0.72978792	1.2935094	0.26415744	0.64899483	1.3503673	0.086785534	0.68975584	1.0022339	-0.1646273	0.64452928	0.98768592	0.32702031	0.87286427	0.83597548	-0.14543455	0.78802368	0.80078079	0.39414642
317	1.264	0.406919	0.10426554	-0.043133157	0.89194475	0.036184139	0.1418793	0.41195255	0.23432552	-0.074307404	0.75405807	0.059431997	0.16159092	0.43214135	0.23937722	0.0080190929	0.77762523	0.083184127	0.076027016	0.36537438	0.2919337	-0.02470751	0.70202444	0.0387146	0.099317714	0.75133666	0.38831168	-0.10388261	0.83328858	0.44169035	0.20312907	0.75506207	0.37261666	0.018011032	0.80267047	0.43281232	0.078896966	0.67317465	0.7750334	-0.08507164	0.69813931	0.80064708	0.26120586	0.75508818	0.82339473	-0.050934044	0.78933215	0.84514024	0.19292882	0.58715261	0.91463412	0.092952537	0.72369713	1.3268678	-0.097069207	0.73559248	1.2960168	0.26420231	0.65454886	1.3524521	0.086968919	0.69341264	1.0049963	-0.16447096	0.65241323	0.98927929	0.32742504	0.87460728	0.83655211	-0.1466521	0.80034425	0.80489676	0.39272633
318	1.268	0.42218404	0.10558821	-0.043984155	0.89185074	0.03620844	0.14189294	0.42537246	0.2356093	-0.074639174	0.7539383	0.059478053	0.16168317	0.44543211	0.24076292	0.0077606782	0.77752215	0.083321158	0.07611947	0.3780099	0.29262801	-0.024794169	0.70190474	0.038803982	0.099474127	0.76360254	0.39174021	-0.10375339	0.83386445	0.4417929	0.20309246	0.76728658	0.3758523	0.01839191	0.80350599	0.43307066	0.078889648	0.67992618	0.77749867	-0.084672291	0.70583477	0.80163591	0.26059602	0.76137555	0.82584979	-0.050296424	0.79471286	0.84712274	0.19375835	0.59341301	0.91654781	0.093524495	0.72915629	1.3291185	-0.096952486	0.74141669	1.2985146	0.26424456	0.66010076	1.3545019	0.087142749	0.69703714	1.0077391	-0.16434743	0.66023223	0.99093817	0.3278191	0.87632094	0.83716841	-0.14786374	0.81259947	0.80914835	0.39125521
319	1.272	0.43762537	0.10670987	-0.044863585	0.89175381	0.036232125	0.14188971	0.43879834	0.23666425	-0.074915516	0.75385363	0.059496881	0.16173489	0.45882968	0.2419041	0.0074901786	0.77739611	0.08345142	0.076207312	0.39064539	0.29303198	-0.024858945	0.70180349	0.038885151	0.099579242	0.77580065	0.39525727	-0.10359996	0.83433077	0.44186431	0.2029588	0.77930712	0.37920143	0.018853417	0.80427748	0.43325048	0.078789872	0.68679902	0.77999402	-0.084280238	0.71367179	0.80262509	0.25998834	0.76768887	0.8283139	-0.0496899	0.80010043	0.84911333	0.19450949	0.59964471	0.91842772	0.094127941	0.73464431	1.3313234	-0.096840915	0.74725665	1.3009972	0.26428491	0.66565644	1.3565144	0.087310376	0.70063276	1.0104572	-0.16425035	0.66806771	0.99265815	0.32823638	0.87802726	0.83781528	-0.14906004	0.82478658	0.81352131	0.38973678
320	1.276	0.45323651	0.10762892	-0.045766757	0.89166085	0.036258147	0.14186798	0.45223315	0.23751586	-0.075153524	0.75376796	0.059494433	0.16176153	0.47227479	0.24281322	0.0072361299	0.77725847	0.083576033	0.076278751	0.40327806	0.29314436	-0.024917468	0.70172805	0.038960381	0.099623802	0.78794807	0.39883295	-0.10339913	0.83473442	0.44190944	0.2027442	0.79113382	0.38266292	0.019387427	0.8050755	0.4333674	0.078559334	0.69363027	0.78248025	-0.083992544	0.72120663	0.80370327	0.25952756	0.77404207	0.83078854	-0.049105032	0.80550451	0.85110385	0.19519022	0.6057003	0.92025823	0.094537545	0.74013154	1.3334601	-0.096695635	0.75310842	1.3034579	0.26432355	0.67121494	1.358487	0.087474217	0.70419895	1.0131421	-0.16417429	0.67591976	0.99441415	0.32868202	0.87973485	0.8384844	-0.15024338	0.83688904	0.81797944	0.38817537
321	1.28	0.46900963	0.10834755	-0.046682112	0.89158544	0.036290705	0.14182552	0.46569552	0.23815832	-0.075373536	0.75366382	0.059497033	0.16178175	0.48571581	0.24349738	0.0070196505	0.77712468	0.083696568	0.076323903	0.41591198	0.2929539	-0.024990781	0.70165817	0.039037692	0.09964932	0.80003783	0.40244867	-0.10314181	0.83512326	0.44193271	0.20246459	0.80286058	0.38622074	0.019958985	0.80579543	0.43346485	0.078231605	0.70027001	0.78490053	-0.083938586	0.72815312	0.80492468	0.25929607	0.78041031	0.83327616	-0.048540222	0.8109326	0.85307902	0.19580827	0.61154224	0.92204382	0.094713425	0.74561454	1.3355165	-0.096511309	0.75897093	1.3058888	0.26435991	0.6767686	1.3604113	0.087632844	0.70773321	1.0157827	-0.16411346	0.68375097	0.99617709	0.32914237	0.88142394	0.83917128	-0.15143347	0.8488928	0.82249116	0.3865712
322	1.284	0.48493962	0.10887121	-0.047594263	0.89153745	0.036331591	0.14176426	0.47920106	0.23858145	-0.075584072	0.75354927	0.059532804	0.16180431	0.49913318	0.24395388	0.0068477923	0.77700834	0.083814126	0.076341055	0.42855213	0.29244975	-0.025091427	0.70156978	0.03912501	0.099704112	0.81204979	0.40610287	-0.10283139	0.83554868	0.44193855	0.20213653	0.81453789	0.38985343	0.020545487	0.80621644	0.43358452	0.077906451	0.70670745	0.78723927	-0.084139674	0.73445908	0.80627091	0.2592614	0.78676886	0.83577456	-0.047996824	0.816386	0.85502023	0.19636719	0.61724441	0.92380052	0.094767818	0.75110498	1.3374987	-0.096313623	0.76484431	1.3082808	0.26439305	0.68231056	1.3622786	0.087788357	0.71123623	1.0183742	-0.16406193	0.69155576	0.99793104	0.32961169	0.88306431	0.83986838	-0.15265207	0.86079861	0.82705136	0.38492011
